<?xml version="1.0" encoding="UTF-8"?>
<svg id="Layer_1" xmlns="http://www.w3.org/2000/svg" xmlns:xlink="http://www.w3.org/1999/xlink" version="1.1" viewBox="0 0 360 306.59">
  <!-- Generator: Adobe Illustrator 29.5.1, SVG Export Plug-In . SVG Version: 2.1.0 Build 141)  -->
  <defs>
    <style>
      .st0 {
        fill: none;
      }

      .st1 {
        fill: #662d91;
      }

      .st2 {
        fill: url(#linear-gradient2);
      }

      .st3 {
        fill: url(#linear-gradient1);
      }

      .st4 {
        fill: url(#linear-gradient9);
      }

      .st5 {
        fill: url(#linear-gradient3);
      }

      .st6 {
        fill: url(#linear-gradient6);
      }

      .st7 {
        fill: url(#linear-gradient8);
      }

      .st8 {
        fill: url(#linear-gradient7);
      }

      .st9 {
        fill: url(#linear-gradient5);
      }

      .st10 {
        fill: url(#linear-gradient4);
      }

      .st11 {
        fill: #00a79d;
      }

      .st12 {
        fill: #7f3f98;
      }

      .st13 {
        fill: #f5822f;
      }

      .st14 {
        fill: url(#linear-gradient28);
      }

      .st15 {
        fill: url(#linear-gradient18);
      }

      .st16 {
        fill: url(#linear-gradient13);
      }

      .st17 {
        fill: url(#linear-gradient12);
      }

      .st18 {
        fill: url(#linear-gradient15);
      }

      .st19 {
        fill: url(#linear-gradient16);
      }

      .st20 {
        fill: url(#linear-gradient11);
      }

      .st21 {
        fill: url(#linear-gradient10);
      }

      .st22 {
        fill: url(#linear-gradient17);
      }

      .st23 {
        fill: url(#linear-gradient14);
      }

      .st24 {
        fill: url(#linear-gradient19);
      }

      .st25 {
        fill: url(#linear-gradient23);
      }

      .st26 {
        fill: url(#linear-gradient22);
      }

      .st27 {
        fill: url(#linear-gradient24);
      }

      .st28 {
        fill: url(#linear-gradient25);
      }

      .st29 {
        fill: url(#linear-gradient21);
      }

      .st30 {
        fill: url(#linear-gradient20);
      }

      .st31 {
        fill: url(#linear-gradient27);
      }

      .st32 {
        fill: url(#linear-gradient26);
      }

      .st33 {
        fill: url(#linear-gradient);
      }

      .st34 {
        fill: #8dc63f;
      }

      .st35 {
        clip-path: url(#clippath-17);
      }

      .st36 {
        clip-path: url(#clippath-19);
      }

      .st37 {
        clip-path: url(#clippath-11);
      }

      .st38 {
        clip-path: url(#clippath-16);
      }

      .st39 {
        clip-path: url(#clippath-18);
      }

      .st40 {
        clip-path: url(#clippath-10);
      }

      .st41 {
        clip-path: url(#clippath-15);
      }

      .st42 {
        clip-path: url(#clippath-13);
      }

      .st43 {
        clip-path: url(#clippath-14);
      }

      .st44 {
        clip-path: url(#clippath-12);
      }

      .st45 {
        clip-path: url(#clippath-31);
      }

      .st46 {
        clip-path: url(#clippath-32);
      }

      .st47 {
        clip-path: url(#clippath-33);
      }

      .st48 {
        clip-path: url(#clippath-34);
      }

      .st49 {
        clip-path: url(#clippath-35);
      }

      .st50 {
        clip-path: url(#clippath-39);
      }

      .st51 {
        clip-path: url(#clippath-30);
      }

      .st52 {
        clip-path: url(#clippath-36);
      }

      .st53 {
        clip-path: url(#clippath-37);
      }

      .st54 {
        clip-path: url(#clippath-38);
      }

      .st55 {
        clip-path: url(#clippath-27);
      }

      .st56 {
        clip-path: url(#clippath-29);
      }

      .st57 {
        clip-path: url(#clippath-26);
      }

      .st58 {
        clip-path: url(#clippath-28);
      }

      .st59 {
        clip-path: url(#clippath-20);
      }

      .st60 {
        clip-path: url(#clippath-21);
      }

      .st61 {
        clip-path: url(#clippath-22);
      }

      .st62 {
        clip-path: url(#clippath-23);
      }

      .st63 {
        clip-path: url(#clippath-24);
      }

      .st64 {
        clip-path: url(#clippath-25);
      }

      .st65 {
        clip-path: url(#clippath-41);
      }

      .st66 {
        clip-path: url(#clippath-42);
      }

      .st67 {
        clip-path: url(#clippath-43);
      }

      .st68 {
        clip-path: url(#clippath-44);
      }

      .st69 {
        clip-path: url(#clippath-45);
      }

      .st70 {
        clip-path: url(#clippath-40);
      }

      .st71 {
        clip-path: url(#clippath-46);
      }

      .st72 {
        clip-path: url(#clippath-47);
      }

      .st73 {
        clip-path: url(#clippath-48);
      }

      .st74 {
        display: none;
        fill: #fff;
      }

      .st75 {
        clip-path: url(#clippath-1);
      }

      .st76 {
        clip-path: url(#clippath-3);
      }

      .st77 {
        clip-path: url(#clippath-4);
      }

      .st78 {
        clip-path: url(#clippath-2);
      }

      .st79 {
        clip-path: url(#clippath-7);
      }

      .st80 {
        clip-path: url(#clippath-6);
      }

      .st81 {
        clip-path: url(#clippath-9);
      }

      .st82 {
        clip-path: url(#clippath-8);
      }

      .st83 {
        clip-path: url(#clippath-5);
      }

      .st84 {
        fill: #a154a1;
      }

      .st85 {
        clip-path: url(#clippath);
      }
    </style>
    <clipPath id="clippath">
      <path class="st0" d="M173.57,132.56l-.03.02s-1.31.75-3.45,1.25c4.32,8.16,11.09,13.71,11.09,13.71l.03-.13c.24-.88,1.73-6.63,3.07-13.5v-.02c-.96.14-1.93.2-2.91.2-2.78,0-5.45-.59-7.79-1.54h-.01Z"/>
    </clipPath>
    <clipPath id="clippath-1">
      <rect class="st0" x="299.01" y="112.71" width="36.96" height="37.75"/>
    </clipPath>
    <linearGradient id="linear-gradient" x1="-83.68" y1="412.77" x2="-81.63" y2="412.77" gradientTransform="translate(-31065.18 -6211.7) rotate(-90) scale(76.03)" gradientUnits="userSpaceOnUse">
      <stop offset="0" stop-color="#8cc63f"/>
      <stop offset=".04" stop-color="#87c33f"/>
      <stop offset=".09" stop-color="#7bbc3f"/>
      <stop offset=".13" stop-color="#67b03f"/>
      <stop offset=".17" stop-color="#4ba03f"/>
      <stop offset=".22" stop-color="#278b3f"/>
      <stop offset=".26" stop-color="#007440"/>
      <stop offset="1" stop-color="#007440"/>
    </linearGradient>
    <clipPath id="clippath-2">
      <path class="st0" d="M173.57,132.56l-.03.02s-1.31.75-3.45,1.25c4.32,8.16,11.09,13.71,11.09,13.71l.03-.13c.24-.88,1.73-6.63,3.07-13.5v-.02c-.96.14-1.93.2-2.91.2-2.78,0-5.45-.59-7.79-1.54h-.01Z"/>
    </clipPath>
    <clipPath id="clippath-3">
      <rect class="st0" x="279" y="140.57" width="36.96" height="37.75"/>
    </clipPath>
    <linearGradient id="linear-gradient1" x1="-83.87" y1="412.63" x2="-81.82" y2="412.63" gradientTransform="translate(-31074.93 -6198.11) rotate(-90) scale(76.03)" gradientUnits="userSpaceOnUse">
      <stop offset="0" stop-color="#8cc63f"/>
      <stop offset=".04" stop-color="#87c33f"/>
      <stop offset=".09" stop-color="#7bbc3f"/>
      <stop offset=".13" stop-color="#67b03f"/>
      <stop offset=".17" stop-color="#4ba03f"/>
      <stop offset=".22" stop-color="#278b3f"/>
      <stop offset=".26" stop-color="#007440"/>
      <stop offset="1" stop-color="#007440"/>
    </linearGradient>
    <clipPath id="clippath-4">
      <path class="st0" d="M173.57,132.56l-.03.02s-1.31.75-3.45,1.25c4.32,8.16,11.09,13.71,11.09,13.71l.03-.13c.24-.88,1.73-6.63,3.07-13.5v-.02c-.96.14-1.93.2-2.91.2-2.78,0-5.45-.59-7.79-1.54h-.01Z"/>
    </clipPath>
    <linearGradient id="linear-gradient2" x1="-89.23" y1="414.12" x2="-87.18" y2="414.12" gradientTransform="translate(-12316.86 -2544.36) rotate(-90) scale(30.17)" gradientUnits="userSpaceOnUse">
      <stop offset="0" stop-color="#8cc63f"/>
      <stop offset=".04" stop-color="#87c33f"/>
      <stop offset=".09" stop-color="#7bbc3f"/>
      <stop offset=".13" stop-color="#67b03f"/>
      <stop offset=".17" stop-color="#4ba03f"/>
      <stop offset=".22" stop-color="#278b3f"/>
      <stop offset=".26" stop-color="#007440"/>
      <stop offset="1" stop-color="#007440"/>
    </linearGradient>
    <clipPath id="clippath-5">
      <path class="st0" d="M149.91,117.8c0,.18,1.09,10.87,9.44,14.82,4.29,2.03,8.19,1.83,10.83,1.2,2.24-.54,3.51-1.25,3.51-1.25l-.1-.04c-1.27-.53-2.47-1.18-3.61-1.94l-.05-.03c-.67-.45-1.3-.93-1.91-1.45-2.3-1.97-4.19-4.43-5.5-7.23-.93.37-2.14.62-3.68.54-4.86-.27-8.86-4.53-8.93-4.61h0Z"/>
    </clipPath>
    <clipPath id="clippath-6">
      <rect class="st0" x="385.27" y="100.03" width="74.28" height="74.28" transform="translate(26.72 338.86) rotate(-45)"/>
    </clipPath>
    <linearGradient id="linear-gradient3" x1="-80.41" y1="412.3" x2="-78.36" y2="412.3" gradientTransform="translate(14937.15 -74806.39) scale(181.77)" gradientUnits="userSpaceOnUse">
      <stop offset="0" stop-color="#f7931e"/>
      <stop offset=".18" stop-color="#f7931e"/>
      <stop offset=".23" stop-color="#f5911d"/>
      <stop offset=".25" stop-color="#ee8d1b"/>
      <stop offset=".26" stop-color="#e28618"/>
      <stop offset=".27" stop-color="#d17c13"/>
      <stop offset=".28" stop-color="#bb6f0d"/>
      <stop offset=".29" stop-color="#a05f05"/>
      <stop offset=".3" stop-color="#8e5400"/>
      <stop offset="1" stop-color="#8e5400"/>
    </linearGradient>
    <clipPath id="clippath-7">
      <path class="st0" d="M149.91,117.8c0,.18,1.09,10.87,9.44,14.82,4.29,2.03,8.19,1.83,10.83,1.2,2.24-.54,3.51-1.25,3.51-1.25l-.1-.04c-1.27-.53-2.47-1.18-3.61-1.94l-.05-.03c-.67-.45-1.3-.93-1.91-1.45-2.3-1.97-4.19-4.43-5.5-7.23-.93.37-2.14.62-3.68.54-4.86-.27-8.86-4.53-8.93-4.61h0Z"/>
    </clipPath>
    <clipPath id="clippath-8">
      <rect class="st0" x="276.35" y="92.01" width="51.51" height="51.51" transform="translate(5.21 248.11) rotate(-45)"/>
    </clipPath>
    <linearGradient id="linear-gradient4" x1="-80.76" y1="412.78" x2="-78.71" y2="412.78" gradientTransform="translate(10410.09 -51908.66) scale(126.04)" gradientUnits="userSpaceOnUse">
      <stop offset="0" stop-color="#f7931e"/>
      <stop offset=".18" stop-color="#f7931e"/>
      <stop offset=".23" stop-color="#f5911d"/>
      <stop offset=".25" stop-color="#ee8d1b"/>
      <stop offset=".26" stop-color="#e28618"/>
      <stop offset=".27" stop-color="#d17c13"/>
      <stop offset=".28" stop-color="#bb6f0d"/>
      <stop offset=".29" stop-color="#a05f05"/>
      <stop offset=".3" stop-color="#8e5400"/>
      <stop offset="1" stop-color="#8e5400"/>
    </linearGradient>
    <clipPath id="clippath-9">
      <path class="st0" d="M149.91,117.8c0,.18,1.09,10.87,9.44,14.82,4.29,2.03,8.19,1.83,10.83,1.2,2.24-.54,3.51-1.25,3.51-1.25l-.1-.04c-1.27-.53-2.47-1.18-3.61-1.94l-.05-.03c-.67-.45-1.3-.93-1.91-1.45-2.3-1.97-4.19-4.43-5.5-7.23-.93.37-2.14.62-3.68.54-4.86-.27-8.86-4.53-8.93-4.61h0Z"/>
    </clipPath>
    <clipPath id="clippath-10">
      <rect class="st0" x="256.34" y="119.87" width="51.51" height="51.51" transform="translate(-20.35 242.12) rotate(-45)"/>
    </clipPath>
    <linearGradient id="linear-gradient5" x1="-80.9" y1="412.8" x2="-78.85" y2="412.8" gradientTransform="translate(10407.42 -51883.63) scale(126.04)" gradientUnits="userSpaceOnUse">
      <stop offset="0" stop-color="#f7931e"/>
      <stop offset=".18" stop-color="#f7931e"/>
      <stop offset=".23" stop-color="#f5911d"/>
      <stop offset=".25" stop-color="#ee8d1b"/>
      <stop offset=".26" stop-color="#e28618"/>
      <stop offset=".27" stop-color="#d17c13"/>
      <stop offset=".28" stop-color="#bb6f0d"/>
      <stop offset=".29" stop-color="#a05f05"/>
      <stop offset=".3" stop-color="#8e5400"/>
      <stop offset="1" stop-color="#8e5400"/>
    </linearGradient>
    <clipPath id="clippath-11">
      <path class="st0" d="M149.91,117.8c0,.18,1.09,10.87,9.44,14.82,4.29,2.03,8.19,1.83,10.83,1.2,2.24-.54,3.51-1.25,3.51-1.25l-.1-.04c-1.27-.53-2.47-1.18-3.61-1.94l-.05-.03c-.67-.45-1.3-.93-1.91-1.45-2.3-1.97-4.19-4.43-5.5-7.23-.93.37-2.14.62-3.68.54-4.86-.27-8.86-4.53-8.93-4.61h0Z"/>
    </clipPath>
    <linearGradient id="linear-gradient6" x1="-81.9" y1="414.08" x2="-79.85" y2="414.08" gradientTransform="translate(5881.54 -28991.65) scale(70.32)" gradientUnits="userSpaceOnUse">
      <stop offset="0" stop-color="#f7931e"/>
      <stop offset=".18" stop-color="#f7931e"/>
      <stop offset=".23" stop-color="#f5911d"/>
      <stop offset=".25" stop-color="#ee8d1b"/>
      <stop offset=".26" stop-color="#e28618"/>
      <stop offset=".27" stop-color="#d17c13"/>
      <stop offset=".28" stop-color="#bb6f0d"/>
      <stop offset=".29" stop-color="#a05f05"/>
      <stop offset=".3" stop-color="#8e5400"/>
      <stop offset="1" stop-color="#8e5400"/>
    </linearGradient>
    <clipPath id="clippath-12">
      <path class="st0" d="M203.63,122.4c-1.45.08-2.56-.09-3.41-.36-1.39,2.91-3.42,5.45-5.88,7.43l-.59.46-.06.05c-.57.42-1.16.82-1.77,1.18l-.17.1c-.64.38-1.3.71-1.97,1.02l-.84.35c.37.19,1.6.78,3.39,1.19,2.64.6,6.52.81,10.79-1.21,8.33-3.95,9.42-14.6,9.44-14.82-.1.1-4.08,4.34-8.91,4.6h-.02Z"/>
    </clipPath>
    <clipPath id="clippath-13">
      <rect class="st0" x="424.26" y="100.1" width="74.15" height="74.15" transform="translate(38.13 366.39) rotate(-45)"/>
    </clipPath>
    <linearGradient id="linear-gradient7" x1="-52.78" y1="410.92" x2="-50.73" y2="410.92" gradientTransform="translate(6082.69 849.21) rotate(90) scale(13.68)" gradientUnits="userSpaceOnUse">
      <stop offset="0" stop-color="#662d91"/>
      <stop offset=".4" stop-color="#662d91"/>
      <stop offset=".75" stop-color="#8a449a"/>
      <stop offset="1" stop-color="#a757a2"/>
    </linearGradient>
    <clipPath id="clippath-14">
      <path class="st0" d="M203.63,122.4c-1.45.08-2.56-.09-3.41-.36-1.39,2.91-3.42,5.45-5.88,7.43l-.59.46-.06.05c-.57.42-1.16.82-1.77,1.18l-.17.1c-.64.38-1.3.71-1.97,1.02l-.84.35c.37.19,1.6.78,3.39,1.19,2.64.6,6.52.81,10.79-1.21,8.33-3.95,9.42-14.6,9.44-14.82-.1.1-4.08,4.34-8.91,4.6h-.02Z"/>
    </clipPath>
    <clipPath id="clippath-15">
      <rect class="st0" x="315.35" y="92.07" width="51.38" height="51.38" transform="translate(16.62 275.64) rotate(-45)"/>
    </clipPath>
    <linearGradient id="linear-gradient8" x1="-45.89" y1="415.07" x2="-43.84" y2="415.07" gradientTransform="translate(4275.94 545.95) rotate(90) scale(9.48)" gradientUnits="userSpaceOnUse">
      <stop offset="0" stop-color="#662d91"/>
      <stop offset=".4" stop-color="#662d91"/>
      <stop offset=".75" stop-color="#8a449a"/>
      <stop offset="1" stop-color="#a757a2"/>
    </linearGradient>
    <clipPath id="clippath-16">
      <path class="st0" d="M203.63,122.4c-1.45.08-2.56-.09-3.41-.36-1.39,2.91-3.42,5.45-5.88,7.43l-.59.46-.06.05c-.57.42-1.16.82-1.77,1.18l-.17.1c-.64.38-1.3.71-1.97,1.02l-.84.35c.37.19,1.6.78,3.39,1.19,2.64.6,6.52.81,10.79-1.21,8.33-3.95,9.42-14.6,9.44-14.82-.1.1-4.08,4.34-8.91,4.6h-.02Z"/>
    </clipPath>
    <clipPath id="clippath-17">
      <rect class="st0" x="295.34" y="119.95" width="51.38" height="51.38" transform="translate(-8.95 269.66) rotate(-45)"/>
    </clipPath>
    <linearGradient id="linear-gradient9" x1="-45.59" y1="416.9" x2="-43.53" y2="416.9" gradientTransform="translate(4273.27 570.98) rotate(90) scale(9.48)" gradientUnits="userSpaceOnUse">
      <stop offset="0" stop-color="#662d91"/>
      <stop offset=".4" stop-color="#662d91"/>
      <stop offset=".75" stop-color="#8a449a"/>
      <stop offset="1" stop-color="#a757a2"/>
    </linearGradient>
    <clipPath id="clippath-18">
      <path class="st0" d="M203.63,122.4c-1.45.08-2.56-.09-3.41-.36-1.39,2.91-3.41,5.45-5.88,7.43l-.59.46-.06.05c-.57.42-1.16.82-1.77,1.18l-.17.1c-.64.38-1.3.71-1.97,1.02l-.84.35c.37.19,1.6.78,3.39,1.19,2.64.6,6.52.81,10.79-1.21,8.33-3.95,9.42-14.6,9.44-14.82-.1.1-4.08,4.34-8.91,4.6h-.02Z"/>
    </clipPath>
    <linearGradient id="linear-gradient10" x1="-27.51" y1="429.13" x2="-25.46" y2="429.13" gradientTransform="translate(2466.53 267.72) rotate(90) scale(5.28)" gradientUnits="userSpaceOnUse">
      <stop offset="0" stop-color="#662d91"/>
      <stop offset=".4" stop-color="#662d91"/>
      <stop offset=".75" stop-color="#8a449a"/>
      <stop offset="1" stop-color="#a757a2"/>
    </linearGradient>
    <clipPath id="clippath-19">
      <path class="st0" d="M160.41,96.15v16.55c0,3.28.74,6.38,2.04,9.16,1.31,2.8,3.19,5.26,5.5,7.23,1.66,1.42,3.54,2.58,5.57,3.43,2.43,1.01,5.08,1.57,7.86,1.57.99,0,1.97-.07,2.92-.21,1.62-.23,3.19-.65,4.67-1.24,1.96-.77,3.77-1.85,5.39-3.17,2.46-1.99,4.47-4.53,5.87-7.44,1.35-2.82,2.12-5.99,2.13-9.34v-16.55h-41.95ZM160.41,95.89v.27-.27Z"/>
    </clipPath>
    <clipPath id="clippath-20">
      <rect class="st0" x="289.32" y="76.04" width="64.72" height="60.98"/>
    </clipPath>
    <linearGradient id="linear-gradient11" x1="-86.52" y1="402.14" x2="-84.47" y2="402.14" gradientTransform="translate(-2376.54 12798.04) rotate(-180) scale(31.56)" gradientUnits="userSpaceOnUse">
      <stop offset="0" stop-color="#f3b21f"/>
      <stop offset=".26" stop-color="#f3b21f"/>
      <stop offset=".52" stop-color="#f3a024"/>
      <stop offset="1" stop-color="#f5822e"/>
    </linearGradient>
    <clipPath id="clippath-21">
      <path class="st0" d="M160.41,96.15v16.55c0,3.28.74,6.38,2.04,9.16,1.31,2.8,3.19,5.26,5.5,7.23,1.66,1.42,3.54,2.58,5.57,3.43,2.43,1.01,5.08,1.57,7.86,1.57.99,0,1.97-.07,2.92-.21,1.62-.23,3.19-.65,4.67-1.24,1.96-.77,3.77-1.85,5.39-3.17,2.46-1.99,4.47-4.53,5.87-7.44,1.35-2.82,2.12-5.99,2.13-9.34v-16.55h-41.95ZM160.41,95.89v.27-.27Z"/>
    </clipPath>
    <clipPath id="clippath-22">
      <rect class="st0" x="269.31" y="103.91" width="64.72" height="60.98"/>
    </clipPath>
    <linearGradient id="linear-gradient12" x1="-86.2" y1="401.69" x2="-84.14" y2="401.69" gradientTransform="translate(-2386.29 12811.63) rotate(-180) scale(31.56)" gradientUnits="userSpaceOnUse">
      <stop offset="0" stop-color="#f3b21f"/>
      <stop offset=".26" stop-color="#f3b21f"/>
      <stop offset=".52" stop-color="#f3a024"/>
      <stop offset="1" stop-color="#f5822e"/>
    </linearGradient>
    <clipPath id="clippath-23">
      <path class="st0" d="M160.41,96.15v16.55c0,3.28.74,6.38,2.04,9.16,1.31,2.8,3.19,5.26,5.5,7.23,1.66,1.42,3.54,2.58,5.57,3.43,2.43,1.01,5.08,1.57,7.86,1.57.99,0,1.97-.07,2.92-.21,1.62-.23,3.19-.65,4.67-1.24,1.96-.77,3.77-1.85,5.39-3.17,2.46-1.99,4.47-4.53,5.87-7.44,1.35-2.82,2.12-5.99,2.13-9.34v-16.55h-41.95ZM160.41,96.15v-.27.27Z"/>
    </clipPath>
    <linearGradient id="linear-gradient13" x1="-86.26" y1="397.54" x2="-84.21" y2="397.54" gradientTransform="translate(-1562.69 8248.63) rotate(-180) scale(20.46)" gradientUnits="userSpaceOnUse">
      <stop offset="0" stop-color="#f3b21f"/>
      <stop offset=".26" stop-color="#f3b21f"/>
      <stop offset=".52" stop-color="#f3a024"/>
      <stop offset="1" stop-color="#f5822e"/>
    </linearGradient>
    <clipPath id="clippath-24">
      <path class="st0" d="M166.74,122.86c-.44-.65-2.12-3.59-2.53-5.66-.36-1.44-.56-2.94-.56-4.5v-13.64h35.46v13.67c-.03,8.81-6.25,16.15-14.43,17.73-1.07.21-2.18.32-3.31.32-6.07,0-11.44-3.14-14.64-7.92M160.41,95.5v17.2c0,3.28.74,6.38,2.04,9.16,1.31,2.8,3.19,5.26,5.5,7.23,1.66,1.42,3.54,2.58,5.57,3.43,2.43,1.01,5.08,1.57,7.86,1.57.99,0,1.97-.07,2.92-.2,1.62-.24,3.19-.66,4.67-1.24,1.96-.77,3.77-1.85,5.39-3.17,2.46-1.99,4.47-4.53,5.87-7.44,1.35-2.82,2.12-5.99,2.13-9.34v-17.2h-41.95Z"/>
    </clipPath>
    <clipPath id="clippath-25">
      <rect class="st0" x="289.32" y="75.65" width="64.72" height="61.37"/>
    </clipPath>
    <linearGradient id="linear-gradient14" x1="-86.52" y1="402.14" x2="-84.47" y2="402.14" gradientTransform="translate(-2376.54 12797.95) rotate(-180) scale(31.56)" gradientUnits="userSpaceOnUse">
      <stop offset="0" stop-color="#662d91"/>
      <stop offset=".23" stop-color="#6b3092"/>
      <stop offset=".5" stop-color="#793996"/>
      <stop offset=".79" stop-color="#91499c"/>
      <stop offset="1" stop-color="#a757a2"/>
    </linearGradient>
    <clipPath id="clippath-26">
      <path class="st0" d="M166.74,122.86c-.44-.65-2.12-3.59-2.53-5.66-.36-1.44-.56-2.94-.56-4.5v-13.64h35.46v13.67c-.03,8.81-6.25,16.15-14.43,17.73-1.07.21-2.18.32-3.31.32-6.07,0-11.44-3.14-14.64-7.92M160.41,95.5v17.2c0,3.28.74,6.38,2.04,9.16,1.31,2.8,3.19,5.26,5.5,7.23,1.66,1.42,3.54,2.58,5.57,3.43,2.43,1.01,5.08,1.57,7.86,1.57.99,0,1.97-.07,2.92-.2,1.62-.24,3.19-.66,4.67-1.24,1.96-.77,3.77-1.85,5.39-3.17,2.46-1.99,4.47-4.53,5.87-7.44,1.35-2.82,2.12-5.99,2.13-9.34v-17.2h-41.95Z"/>
    </clipPath>
    <clipPath id="clippath-27">
      <rect class="st0" x="269.31" y="103.52" width="64.72" height="61.37"/>
    </clipPath>
    <linearGradient id="linear-gradient15" x1="-86.2" y1="401.69" x2="-84.14" y2="401.69" gradientTransform="translate(-2386.29 12811.54) rotate(-180) scale(31.56)" gradientUnits="userSpaceOnUse">
      <stop offset="0" stop-color="#662d91"/>
      <stop offset=".23" stop-color="#6b3092"/>
      <stop offset=".5" stop-color="#793996"/>
      <stop offset=".79" stop-color="#91499c"/>
      <stop offset="1" stop-color="#a757a2"/>
    </linearGradient>
    <clipPath id="clippath-28">
      <path class="st0" d="M166.74,122.86c-.44-.65-2.12-3.59-2.53-5.66-.36-1.44-.56-2.94-.56-4.5v-13.64h35.46v13.67c-.03,8.81-6.25,16.15-14.43,17.73-1.07.21-2.18.32-3.31.32-6.07,0-11.44-3.14-14.64-7.92M160.41,95.5v17.2c0,3.28.74,6.38,2.04,9.16,1.31,2.8,3.19,5.26,5.5,7.23,1.66,1.42,3.54,2.58,5.57,3.43,2.43,1.01,5.08,1.57,7.86,1.57.99,0,1.97-.07,2.92-.2,1.62-.24,3.19-.66,4.67-1.24,1.96-.77,3.77-1.85,5.39-3.17,2.46-1.99,4.47-4.53,5.87-7.44,1.35-2.82,2.12-5.99,2.13-9.34v-17.2h-41.95Z"/>
    </clipPath>
    <linearGradient id="linear-gradient16" x1="-86.26" y1="397.54" x2="-84.21" y2="397.54" gradientTransform="translate(-1562.69 8248.53) rotate(-180) scale(20.46)" gradientUnits="userSpaceOnUse">
      <stop offset="0" stop-color="#662d91"/>
      <stop offset=".23" stop-color="#6b3092"/>
      <stop offset=".5" stop-color="#793996"/>
      <stop offset=".79" stop-color="#91499c"/>
      <stop offset="1" stop-color="#a757a2"/>
    </linearGradient>
    <clipPath id="clippath-29">
      <path class="st0" d="M196.2,101.32c-3.17-.32-6.35-.5-9.33.59-1.48.55-3.16,1.8-5.22,1.82l-.69-.03h-.09c-.49-.08-.95-.22-1.39-.39-1.08-.42-2.09-1.06-3.04-1.4v.03h0c-2.97-1.11-6.16-.92-9.33-.6-4.86.5-7.42.23-9.65-1.81.25,5.76,6.53,14.06,12.7,14.69,2.62.27,4.8-.02,7.07-1.33,1.37-.79,2.68-1.82,4.22-2.03h.39c1.54.21,2.85,1.24,4.22,2.03v-.03h.02c2.27,1.31,4.45,1.6,7.07,1.33,6.17-.62,12.46-8.93,12.7-14.68-2.23,2.03-4.79,2.3-9.65,1.8h0Z"/>
    </clipPath>
    <clipPath id="clippath-30">
      <rect class="st0" x="286.36" y="79.67" width="71.18" height="37.75"/>
    </clipPath>
    <linearGradient id="linear-gradient17" x1="-75.07" y1="417.61" x2="-73.02" y2="417.61" gradientTransform="translate(2892.06 -14396.53) scale(34.71)" gradientUnits="userSpaceOnUse">
      <stop offset="0" stop-color="#662d91"/>
      <stop offset=".75" stop-color="#662d91"/>
      <stop offset=".77" stop-color="#713493"/>
      <stop offset=".81" stop-color="#8e479b"/>
      <stop offset=".85" stop-color="#a052a0"/>
      <stop offset=".88" stop-color="#a757a2"/>
      <stop offset="1" stop-color="#a757a2"/>
    </linearGradient>
    <clipPath id="clippath-31">
      <path class="st0" d="M196.2,101.32c-3.17-.32-6.35-.5-9.33.59-1.48.55-3.16,1.8-5.22,1.82l-.69-.03h-.09c-.49-.08-.95-.22-1.39-.39-1.08-.42-2.09-1.06-3.04-1.4v.03h0c-2.97-1.11-6.16-.92-9.33-.6-4.86.5-7.42.23-9.65-1.81.25,5.76,6.53,14.06,12.7,14.69,2.62.27,4.8-.02,7.07-1.33,1.37-.79,2.68-1.82,4.22-2.03h.39c1.54.21,2.85,1.24,4.22,2.03v-.03h.02c2.27,1.31,4.45,1.6,7.07,1.33,6.17-.62,12.46-8.93,12.7-14.68-2.23,2.03-4.79,2.3-9.65,1.8h0Z"/>
    </clipPath>
    <clipPath id="clippath-32">
      <rect class="st0" x="266.35" y="107.54" width="71.18" height="37.75"/>
    </clipPath>
    <linearGradient id="linear-gradient18" x1="-75.37" y1="418.02" x2="-73.31" y2="418.02" gradientTransform="translate(2882.3 -14382.94) scale(34.71)" gradientUnits="userSpaceOnUse">
      <stop offset="0" stop-color="#662d91"/>
      <stop offset=".75" stop-color="#662d91"/>
      <stop offset=".77" stop-color="#713493"/>
      <stop offset=".81" stop-color="#8e479b"/>
      <stop offset=".85" stop-color="#a052a0"/>
      <stop offset=".88" stop-color="#a757a2"/>
      <stop offset="1" stop-color="#a757a2"/>
    </linearGradient>
    <clipPath id="clippath-33">
      <path class="st0" d="M196.2,101.32c-3.17-.32-6.35-.5-9.33.59-1.48.55-3.16,1.8-5.22,1.82l-.69-.03h-.09c-.49-.08-.95-.22-1.39-.39-1.08-.42-2.08-1.06-3.04-1.4v.03h0c-2.97-1.11-6.16-.92-9.33-.6-4.86.5-7.42.23-9.65-1.81.25,5.76,6.53,14.06,12.7,14.69,2.62.27,4.8-.02,7.07-1.33,1.37-.79,2.68-1.82,4.22-2.03h.39c1.54.21,2.85,1.24,4.22,2.03v-.03h.02c2.27,1.31,4.45,1.6,7.07,1.33,6.17-.62,12.46-8.93,12.7-14.68-2.23,2.03-4.79,2.3-9.65,1.8h0Z"/>
    </clipPath>
    <linearGradient id="linear-gradient19" x1="-75.54" y1="421.19" x2="-73.49" y2="421.19" gradientTransform="translate(1940.21 -9833.14) scale(23.6)" gradientUnits="userSpaceOnUse">
      <stop offset="0" stop-color="#662d91"/>
      <stop offset=".75" stop-color="#662d91"/>
      <stop offset=".77" stop-color="#713493"/>
      <stop offset=".81" stop-color="#8e479b"/>
      <stop offset=".85" stop-color="#a052a0"/>
      <stop offset=".88" stop-color="#a757a2"/>
      <stop offset="1" stop-color="#a757a2"/>
    </linearGradient>
    <clipPath id="clippath-34">
      <path class="st0" d="M169.08,52.45c-2.6,4.96-4.21,10.29-5.18,14.33,4.16.68,7.98,2.44,11.17,4.7,2.11,1.49,3.95,3.21,5.42,4.98,1.36-1.64,3.03-3.23,4.94-4.64-1.68-3.63-3.25-8.05-3.83-12.73-1.28-10.48-.73-19.23-.58-21.14l.03-.39s-7.35,6.04-11.98,14.89h0Z"/>
    </clipPath>
    <clipPath id="clippath-35">
      <rect class="st0" x="292.82" y="17.71" width="44.31" height="61.67"/>
    </clipPath>
    <linearGradient id="linear-gradient20" x1="-75.16" y1="406.03" x2="-73.11" y2="406.03" gradientTransform="translate(18062.7 3302.2) rotate(90) scale(43.71)" gradientUnits="userSpaceOnUse">
      <stop offset="0" stop-color="#8cc63f"/>
      <stop offset=".13" stop-color="#81c03f"/>
      <stop offset=".36" stop-color="#66b03f"/>
      <stop offset=".66" stop-color="#3a963f"/>
      <stop offset="1" stop-color="#007440"/>
    </linearGradient>
    <clipPath id="clippath-36">
      <path class="st0" d="M169.08,52.45c-2.6,4.96-4.21,10.29-5.18,14.33,4.16.68,7.98,2.44,11.17,4.7,2.11,1.49,3.95,3.21,5.42,4.98,1.36-1.64,3.03-3.23,4.94-4.64-1.68-3.63-3.25-8.05-3.83-12.73-1.28-10.48-.73-19.23-.58-21.14l.03-.39s-7.35,6.04-11.98,14.89h0Z"/>
    </clipPath>
    <clipPath id="clippath-37">
      <rect class="st0" x="272.82" y="45.58" width="44.31" height="61.67"/>
    </clipPath>
    <linearGradient id="linear-gradient21" x1="-74.84" y1="406.27" x2="-72.78" y2="406.27" gradientTransform="translate(18052.95 3315.79) rotate(90) scale(43.71)" gradientUnits="userSpaceOnUse">
      <stop offset="0" stop-color="#8cc63f"/>
      <stop offset=".13" stop-color="#81c03f"/>
      <stop offset=".36" stop-color="#66b03f"/>
      <stop offset=".66" stop-color="#3a963f"/>
      <stop offset="1" stop-color="#007440"/>
    </linearGradient>
    <clipPath id="clippath-38">
      <path class="st0" d="M169.08,52.45c-2.6,4.96-4.21,10.29-5.18,14.33,4.16.68,7.98,2.44,11.17,4.7,2.11,1.49,3.95,3.21,5.42,4.98,1.36-1.64,3.03-3.23,4.94-4.64-1.68-3.63-3.25-8.05-3.83-12.73-1.28-10.48-.73-19.23-.58-21.14l.03-.39s-7.35,6.04-11.98,14.89h0Z"/>
    </clipPath>
    <linearGradient id="linear-gradient22" x1="-71.96" y1="406.15" x2="-69.9" y2="406.15" gradientTransform="translate(11372.23 2020.84) rotate(90) scale(27.57)" gradientUnits="userSpaceOnUse">
      <stop offset="0" stop-color="#8cc63f"/>
      <stop offset=".13" stop-color="#81c03f"/>
      <stop offset=".36" stop-color="#66b03f"/>
      <stop offset=".66" stop-color="#3a963f"/>
      <stop offset="1" stop-color="#007440"/>
    </linearGradient>
    <clipPath id="clippath-39">
      <path class="st0" d="M198.26,66.62c-4.82.55-9.24,2.56-12.82,5.2-1.91,1.41-3.58,3-4.94,4.64.82.98,1.52,1.99,2.1,2.99.93,1.61,1.65,3.3,2.21,4.97.38,1.13.69,2.24.94,3.32.75,3.28.97,6.24,1.02,8.08h6.57c0-3.82,1.25-12.04,11.83-14.1,15.76-3.07,20.62,15.42,20.62,15.42,0,0,2.9-16.09-11.01-25.99-4.68-3.33-9.44-4.67-13.94-4.67-.87,0-1.74.05-2.59.15h0Z"/>
    </clipPath>
    <clipPath id="clippath-40">
      <rect class="st0" x="314.24" y="35.57" width="61.34" height="75.55" transform="translate(212.79 400.28) rotate(-80)"/>
    </clipPath>
    <linearGradient id="linear-gradient23" x1="-82.22" y1="411.93" x2="-80.17" y2="411.93" gradientTransform="translate(12210.4 -60599.44) scale(147.29)" gradientUnits="userSpaceOnUse">
      <stop offset="0" stop-color="#662d91"/>
      <stop offset=".75" stop-color="#662d91"/>
      <stop offset=".77" stop-color="#713493"/>
      <stop offset=".81" stop-color="#8e479b"/>
      <stop offset=".85" stop-color="#a052a0"/>
      <stop offset=".88" stop-color="#a757a2"/>
      <stop offset="1" stop-color="#a757a2"/>
    </linearGradient>
    <clipPath id="clippath-41">
      <path class="st0" d="M198.26,66.62c-4.82.55-9.24,2.56-12.82,5.2-1.91,1.41-3.58,3-4.94,4.64.82.98,1.52,1.99,2.1,2.99.93,1.61,1.65,3.3,2.21,4.97.38,1.13.69,2.24.94,3.32.75,3.28.97,6.24,1.02,8.08h6.57c0-3.82,1.25-12.04,11.83-14.1,15.76-3.07,20.62,15.42,20.62,15.42,0,0,2.9-16.09-11.01-25.99-4.68-3.33-9.44-4.67-13.94-4.67-.87,0-1.74.05-2.59.15h0Z"/>
    </clipPath>
    <clipPath id="clippath-42">
      <rect class="st0" x="294.21" y="63.43" width="61.34" height="75.55" transform="translate(168.8 403.58) rotate(-80)"/>
    </clipPath>
    <linearGradient id="linear-gradient24" x1="-82.33" y1="411.88" x2="-80.27" y2="411.88" gradientTransform="translate(12206.2 -60563.95) scale(147.29)" gradientUnits="userSpaceOnUse">
      <stop offset="0" stop-color="#662d91"/>
      <stop offset=".75" stop-color="#662d91"/>
      <stop offset=".77" stop-color="#713493"/>
      <stop offset=".81" stop-color="#8e479b"/>
      <stop offset=".85" stop-color="#a052a0"/>
      <stop offset=".88" stop-color="#a757a2"/>
      <stop offset="1" stop-color="#a757a2"/>
    </linearGradient>
    <clipPath id="clippath-43">
      <path class="st0" d="M198.26,66.62c-4.82.55-9.24,2.56-12.82,5.2-1.91,1.41-3.58,3-4.94,4.64.82.98,1.52,1.99,2.1,2.99.93,1.61,1.65,3.3,2.21,4.97.38,1.13.69,2.24.94,3.32.75,3.28.97,6.24,1.02,8.08h6.57c0-3.82,1.25-12.04,11.83-14.1,15.76-3.07,20.62,15.42,20.62,15.42,0,0,2.9-16.09-11.01-25.99-4.68-3.33-9.44-4.67-13.94-4.67-.87,0-1.74.05-2.59.15h0Z"/>
    </clipPath>
    <linearGradient id="linear-gradient25" x1="-83.21" y1="412.14" x2="-81.16" y2="412.14" gradientTransform="translate(7757 -38086.65) scale(92.61)" gradientUnits="userSpaceOnUse">
      <stop offset="0" stop-color="#662d91"/>
      <stop offset=".75" stop-color="#662d91"/>
      <stop offset=".77" stop-color="#713493"/>
      <stop offset=".81" stop-color="#8e479b"/>
      <stop offset=".85" stop-color="#a052a0"/>
      <stop offset=".88" stop-color="#a757a2"/>
      <stop offset="1" stop-color="#a757a2"/>
    </linearGradient>
    <clipPath id="clippath-44">
      <path class="st0" d="M160.16,66.47c-4.5,0-9.26,1.35-13.94,4.68-13.9,9.9-10.87,26.28-10.87,26.28l.21-.55c1.16-3.32,7.32-18.94,20.62-20.4,13.12-1.44,17.13,10.28,18.39,15.07.17.65.3,1.17.38,1.52.23.9.27,1.79.21,2.74h11.63c-.05-1.84-.27-4.79-1.02-8.08-.25-1.08-.56-2.19-.94-3.32-.56-1.67-1.29-3.36-2.21-4.97-.58-1-1.28-2-2.1-2.99l-.64-.75c-.58-.64-1.18-1.24-1.81-1.83l-.11-.1c-.65-.59-1.34-1.18-2.07-1.72l-.03-.02-.77-.56c-3.19-2.25-7.01-4.02-11.17-4.7-1.22-.2-2.46-.31-3.74-.31h-.02Z"/>
    </clipPath>
    <clipPath id="clippath-45">
      <rect class="st0" x="261.24" y="46.62" width="77.24" height="53.73"/>
    </clipPath>
    <linearGradient id="linear-gradient26" x1="-77.11" y1="407.71" x2="-75.06" y2="407.71" gradientTransform="translate(28468.87 5321.44) rotate(90) scale(69.09)" gradientUnits="userSpaceOnUse">
      <stop offset="0" stop-color="#f3b21f"/>
      <stop offset=".51" stop-color="#f3b21f"/>
      <stop offset=".57" stop-color="#eba81d"/>
      <stop offset=".66" stop-color="#d58f18"/>
      <stop offset=".73" stop-color="#c27814"/>
      <stop offset=".82" stop-color="#bc7113"/>
      <stop offset="1" stop-color="#bc7113"/>
    </linearGradient>
    <clipPath id="clippath-46">
      <path class="st0" d="M160.16,66.47c-4.5,0-9.26,1.35-13.94,4.68-13.9,9.9-10.87,26.28-10.87,26.28l.21-.55c1.16-3.32,7.32-18.94,20.62-20.4,13.12-1.44,17.13,10.28,18.39,15.07.17.65.3,1.17.38,1.52.23.9.27,1.79.21,2.74h11.63c-.05-1.84-.27-4.79-1.02-8.08-.25-1.08-.56-2.19-.94-3.32-.56-1.67-1.29-3.36-2.21-4.97-.58-1-1.28-2-2.1-2.99l-.64-.75c-.58-.64-1.18-1.24-1.81-1.83l-.11-.1c-.65-.59-1.34-1.18-2.07-1.72l-.03-.02-.77-.56c-3.19-2.25-7.01-4.02-11.17-4.7-1.22-.2-2.46-.31-3.74-.31h-.02Z"/>
    </clipPath>
    <clipPath id="clippath-47">
      <rect class="st0" x="241.23" y="74.49" width="77.24" height="53.73"/>
    </clipPath>
    <linearGradient id="linear-gradient27" x1="-76.9" y1="407.86" x2="-74.85" y2="407.86" gradientTransform="translate(28459.11 5335.02) rotate(90) scale(69.09)" gradientUnits="userSpaceOnUse">
      <stop offset="0" stop-color="#f3b21f"/>
      <stop offset=".51" stop-color="#f3b21f"/>
      <stop offset=".57" stop-color="#eba81d"/>
      <stop offset=".66" stop-color="#d58f18"/>
      <stop offset=".73" stop-color="#c27814"/>
      <stop offset=".82" stop-color="#bc7113"/>
      <stop offset="1" stop-color="#bc7113"/>
    </linearGradient>
    <clipPath id="clippath-48">
      <path class="st0" d="M146.22,71.15c-13.9,9.9-10.87,26.28-10.87,26.28l.21-.55c1.16-3.32,7.32-18.94,20.62-20.4,13.12-1.44,17.13,10.28,18.39,15.07.17.65.29,1.17.38,1.52.23.9.27,1.79.21,2.74h11.63c-.05-1.84-.27-4.79-1.02-8.08-.25-1.08-.56-2.19-.94-3.32-.56-1.67-1.29-3.36-2.21-4.97-.58-1-1.29-2-2.1-2.99l-.64-.75c-.58-.64-1.18-1.24-1.81-1.83l-.11-.1c-.65-.59-1.34-1.18-2.07-1.72l-.03-.02-.77-.56c-3.19-2.25-7.01-4.02-11.17-4.7-1.22-.2-2.46-.31-3.74-.31-4.5,0-9.26,1.35-13.94,4.68h-.02Z"/>
    </clipPath>
    <linearGradient id="linear-gradient28" x1="-74.44" y1="407.63" x2="-72.39" y2="407.63" gradientTransform="translate(16387.26 2999.65) rotate(90) scale(39.81)" gradientUnits="userSpaceOnUse">
      <stop offset="0" stop-color="#f3b21f"/>
      <stop offset=".51" stop-color="#f3b21f"/>
      <stop offset=".57" stop-color="#eba81d"/>
      <stop offset=".66" stop-color="#d58f18"/>
      <stop offset=".73" stop-color="#c27814"/>
      <stop offset=".82" stop-color="#bc7113"/>
      <stop offset="1" stop-color="#bc7113"/>
    </linearGradient>
  </defs>
  <g>
    <path class="st1" d="M124.96,144.4h3.12c1.76,0,2.58,1,2.58,2.26,0,.78-.41,1.34-1.06,1.67,1.04.3,1.69,1.09,1.69,2.23,0,1.49-.95,2.65-2.97,2.65h-3.36v-8.81M128,147.86c.95,0,1.28-.44,1.28-1.17,0-.67-.31-1.1-1.28-1.1h-1.68v2.27h1.68ZM128.24,152.01c1.21,0,1.63-.61,1.63-1.52s-.49-1.53-1.7-1.53h-1.84v3.05h1.91,0Z"/>
    <path class="st1" d="M133.08,144.49h1.39v7.58h3.94l-.53,1.22h-4.8v-8.81h0ZM140.82,153.29h-1.4l3.86-8.99h.08l3.87,8.99h-1.46l-.51-1.22h-3.94l-.5,1.22ZM143.31,147.35l-1.46,3.48h2.9l-1.44-3.48"/>
    <rect class="st1" x="149.47" y="144.39" width="1.39" height="8.81"/>
    <polygon class="st1" points="155.08 147.41 155.08 153.2 153.78 153.2 153.78 144.27 153.88 144.27 159.53 150.18 159.53 144.39 160.83 144.39 160.83 153.33 160.72 153.33 155.08 147.41"/>
    <polygon class="st1" points="163.16 144.39 168.77 144.39 168.77 145.62 164.54 145.62 164.54 149.28 168.29 149.28 168.29 150.48 164.54 150.48 164.54 151.97 168.95 151.97 168.95 153.2 163.16 153.2 163.16 144.39"/>
    <path class="st1" d="M230.88,146.04c-.27-.13-.55-.41-.55-.8,0-.51.42-.87.88-.87s.87.36.87.85l-.3.9-.68,1.1h-.66l.44-1.19"/>
    <polygon class="st1" points="199.81 144.39 201.38 144.39 198.25 148.35 201.84 153.2 200.15 153.2 197.35 149.39 196.37 150.58 196.37 153.2 194.99 153.2 194.99 144.39 196.37 144.39 196.37 148.76 199.81 144.39"/>
    <polygon class="st1" points="203.94 144.39 209.54 144.39 209.54 145.62 205.32 145.62 205.32 149.28 209.07 149.28 209.07 150.48 205.32 150.48 205.32 151.97 209.72 151.97 209.72 153.2 203.94 153.2 203.94 144.39"/>
    <path class="st1" d="M218.35,153.2h-1.64l-1.5-2.14-.64.04h-.86v2.1h-1.39v-8.81h2.25c2.42,0,3.75,1.33,3.75,3.37,0,1.36-.6,2.41-1.76,2.94l1.79,2.5M214.52,149.91c1.7,0,2.38-.8,2.38-2.15s-.7-2.14-2.38-2.14h-.81v4.29h.81Z"/>
    <polygon class="st1" points="222.17 147.41 222.17 153.2 220.87 153.2 220.87 144.27 220.97 144.27 226.62 150.18 226.62 144.39 227.92 144.39 227.92 153.33 227.81 153.33 222.17 147.41"/>
    <path class="st1" d="M234.75,150.88c.4.78,1.09,1.19,1.99,1.19s1.55-.44,1.55-1.15c0-.83-.62-1.12-1.4-1.46l-.61-.27c-1.29-.57-2.17-1.24-2.17-2.62s1-2.29,2.45-2.29c1.13,0,1.95.45,2.51,1.39l-1.05.68c-.33-.57-.78-.86-1.44-.86-.71,0-1.13.42-1.13,1.03,0,.7.43.97,1.38,1.4l.61.27c1.33.59,2.21,1.2,2.21,2.69,0,1.62-1.24,2.43-2.91,2.43-1.49,0-2.58-.72-3.17-1.85l1.17-.58"/>
    <path class="st74" d="M181.2,158.38c-.73,0-1.47-.09-2.18-.27-3.49-.88-6.01-3.49-6.75-6.99-.33-1.55-.25-3.1.18-4.54-1.76-1.75-3.25-3.91-4.61-5.85-.32-.46-.61-.9-.88-1.33h-.02c-.28,0-.56.02-.84.02-1.09,0-2.07-.08-3.01-.26-6.78-1.05-12.14-4.8-15.51-10.86-.8-1.43-1.46-2.93-2-4.49-2.79-1.08-4.97-3.51-5.64-6.54-.93-4.32,1.22-8.56,5.21-10.33,1.17-.52,2.41-.78,3.69-.78,2.07,0,4.06.71,5.65,1.97-.83-1.47-1.66-3.22-2.21-5.25l-.02-.09c-.25-.94-.68-2.51-.36-4.51l.9-5.75c-.09-.02-.19-.05-.3-.07-.44-.09-.88-.14-1.32-.14-1.28,0-2.63.42-4.13,1.3-1.1.64-2.17,1.42-3.23,2.37.69,1.99.67,4.23-.18,6.35-1.41,3.48-4.73,5.72-8.47,5.72-.7,0-1.4-.08-2.09-.24-4.42-1.02-7.36-5.11-6.99-9.71.21-2.51,1.43-4.71,3.28-6.21.08-2.58.41-5.07,1.01-7.46v-.04c.08-.27.15-.49.22-.67.49-1.97,1.19-3.86,2.09-5.62,1.45-3.18,3.54-6.11,6.2-8.71,4.37-4.25,9.38-7.05,14.88-8.34,1.87-.44,3.82-.67,5.8-.71.15-.46.3-.92.47-1.37.94-3.08,2.01-5.78,3.28-8.24.87-1.93,1.99-3.89,3.51-6.14.83-1.23,1.77-2.63,2.97-3.99.87-1.17,1.78-2.2,2.67-3.13-.57-1.52-.74-3.21-.41-4.89.82-4.3,4.45-7.37,8.8-7.45h.17c4.25,0,8,3.04,8.91,7.22.38,1.76.22,3.52-.37,5.11.16.17.31.34.47.51,5.06,5.58,8.86,11.92,11.29,18.86.4,1.15.79,2.33,1.15,3.53,3.49.21,6.9,1.08,10.18,2.6,6.02,2.8,10.78,7.01,14.16,12.5.28.46.5.88.67,1.22.05.09.09.18.14.27,1.34,2.38,2.3,4.87,2.86,7.4.58,1.85.79,3.62.89,4.85.12.95.19,1.86.23,2.73,2.34,1.98,3.58,5.06,3.14,8.29-.57,4.33-4.23,7.61-8.7,7.79h-.36c-4.33,0-8.08-3.11-8.91-7.39-.32-1.66-.17-3.31.35-4.8-1.21-.87-2.46-1.44-3.81-1.74-.63-.14-1.27-.22-1.88-.22-.33,0-.66.02-.99.06l.8,4.03c.33,1.67.03,3.02-.11,3.67l-.02.12c-.41,1.88-1.06,3.68-1.96,5.43,1.21-.57,2.54-.87,3.89-.87,1.88,0,3.74.59,5.24,1.66,3.3,2.37,4.65,6.37,3.45,10.21-.8,2.55-2.64,4.55-4.97,5.59-.23.67-.5,1.36-.84,2.05-.86,2.18-2.11,4.26-3.7,6.18-1.57,1.89-3.36,3.4-5.32,4.48-1.17.65-2.21,1.13-3.25,1.52-1.54.62-3.17,1.03-4.84,1.21-.95.17-1.79.19-2.36.19-.3,0-.6,0-.9,0h-.27c-1.57,2.44-3.37,4.78-5.43,7.06.07.2.13.4.18.6.67,2.6.13,5.37-1.49,7.59-1.7,2.34-4.45,3.75-7.35,3.75"/>
    <g class="st85">
      <g class="st75">
        <rect class="st33" x="299.01" y="112.71" width="36.96" height="37.75"/>
      </g>
    </g>
    <g class="st78">
      <g class="st76">
        <rect class="st3" x="279" y="140.57" width="36.96" height="37.75"/>
      </g>
    </g>
    <g class="st77">
      <rect class="st2" x="170.09" y="132.56" width="14.18" height="14.98"/>
    </g>
    <g class="st83">
      <g class="st80">
        <rect class="st5" x="348.13" y="62.89" width="148.56" height="148.56" transform="translate(26.72 338.86) rotate(-45)"/>
      </g>
    </g>
    <g class="st79">
      <g class="st82">
        <rect class="st10" x="250.6" y="66.25" width="103.02" height="103.02" transform="translate(5.22 248.12) rotate(-45)"/>
      </g>
    </g>
    <g class="st81">
      <g class="st40">
        <rect class="st9" x="230.59" y="94.12" width="103.02" height="103.02" transform="translate(-20.35 242.13) rotate(-45)"/>
      </g>
    </g>
    <g class="st37">
      <rect class="st6" x="147.45" y="111.85" width="28.74" height="28.74" transform="translate(-41.86 151.39) rotate(-45)"/>
    </g>
    <path class="st11" d="M184.28,133.89c-1.34,6.88-2.84,12.64-3.07,13.52l.03.12s6.75-5.54,11.08-13.7c-1.79-.41-3.01-1-3.38-1.19-1.48.59-3.04,1.01-4.66,1.24"/>
    <g class="st44">
      <g class="st42">
        <rect class="st8" x="387.19" y="63.01" width="148.31" height="148.31" transform="translate(38.13 366.39) rotate(-45)"/>
      </g>
    </g>
    <g class="st43">
      <g class="st41">
        <rect class="st7" x="289.66" y="66.38" width="102.76" height="102.76" transform="translate(16.62 275.64) rotate(-45)"/>
      </g>
    </g>
    <g class="st38">
      <g class="st35">
        <rect class="st4" x="269.65" y="94.25" width="102.76" height="102.76" transform="translate(-8.95 269.66) rotate(-45)"/>
      </g>
    </g>
    <g class="st39">
      <rect class="st21" x="186.43" y="111.92" width="28.61" height="28.61" transform="translate(-30.46 178.91) rotate(-45)"/>
    </g>
    <path class="st13" d="M152.32,115.78c0,1.9-1.54,3.44-3.43,3.44s-3.44-1.54-3.44-3.44,1.54-3.44,3.44-3.44,3.43,1.54,3.43,3.44"/>
    <path class="st1" d="M216.59,115.93c0,1.89-1.54,3.44-3.44,3.44s-3.44-1.54-3.44-3.44,1.54-3.44,3.44-3.44,3.44,1.54,3.44,3.44"/>
    <path class="st34" d="M184.69,149.76c0,1.9-1.54,3.44-3.44,3.44s-3.43-1.54-3.43-3.44,1.54-3.44,3.43-3.44,3.44,1.54,3.44,3.44"/>
    <g class="st36">
      <g class="st59">
        <rect class="st20" x="289.32" y="76.04" width="64.72" height="60.98"/>
      </g>
    </g>
    <g class="st60">
      <g class="st61">
        <rect class="st17" x="269.31" y="103.91" width="64.72" height="60.98"/>
      </g>
    </g>
    <g class="st62">
      <rect class="st16" x="160.4" y="95.89" width="41.95" height="38.21"/>
    </g>
    <g class="st63">
      <g class="st64">
        <rect class="st23" x="289.32" y="75.65" width="64.72" height="61.37"/>
      </g>
    </g>
    <g class="st57">
      <g class="st55">
        <rect class="st18" x="269.31" y="103.52" width="64.72" height="61.37"/>
      </g>
    </g>
    <g class="st58">
      <rect class="st19" x="160.4" y="95.5" width="41.95" height="38.59"/>
    </g>
    <path class="st12" d="M191.86,116.4c-1.41,0-2.55,1.14-2.55,2.55l.18.92c-2.3,2.16-5.75,3.31-8.31,3.31-2.4,0-5.63-1.04-7.92-3.28l.18-.95c0-1.4-1.14-2.55-2.55-2.55s-2.55,1.14-2.55,2.55,1.15,2.55,2.55,2.55l.45-.04c2.8,2.86,6.75,4.18,9.83,4.18s7.39-1.43,10.19-4.18l.49.05c1.41,0,2.55-1.14,2.55-2.55s-1.14-2.55-2.55-2.55"/>
    <g class="st56">
      <g class="st51">
        <rect class="st22" x="286.36" y="79.67" width="71.18" height="37.75"/>
      </g>
    </g>
    <g class="st45">
      <g class="st46">
        <rect class="st15" x="266.35" y="107.54" width="71.18" height="37.75"/>
      </g>
    </g>
    <g class="st47">
      <rect class="st24" x="157.44" y="99.52" width="48.4" height="14.98"/>
    </g>
    <path class="st84" d="M176.84,108c-.93-2.2-3.27-3.34-5.68-3.04-1.08.14-2.23.94-3.43,1.35.38.94,1.1,1.68,1.52,2.05,1.06.94,2.5,1.16,3.89,1.05,1.32-.1,2.76-.69,3.7-1.42"/>
    <path class="st84" d="M186.44,107.9c.97-2.18,3.33-3.29,5.73-2.94,1.08.16,2.22.97,3.41,1.41-.4.94-1.13,1.66-1.56,2.03-1.07.92-2.52,1.12-3.92.98-1.32-.12-2.75-.73-3.67-1.48"/>
    <g class="st48">
      <g class="st49">
        <rect class="st30" x="292.82" y="17.71" width="44.31" height="61.67"/>
      </g>
    </g>
    <g class="st52">
      <g class="st53">
        <rect class="st29" x="272.82" y="45.58" width="44.31" height="61.67"/>
      </g>
    </g>
    <g class="st54">
      <rect class="st26" x="163.9" y="37.56" width="21.54" height="38.9"/>
    </g>
    <path class="st11" d="M193.12,52.45c-4.63-8.86-11.99-14.9-11.99-14.9l-.1.39c-.15,1.91-.7,10.65.58,21.14.58,4.69,2.15,9.1,3.83,12.73,3.58-2.64,8-4.65,12.82-5.2-.97-4.01-2.57-9.27-5.13-14.16"/>
    <g class="st50">
      <g class="st70">
        <rect class="st25" x="301.31" y="25.08" width="87.18" height="96.53" transform="translate(212.78 400.27) rotate(-80)"/>
      </g>
    </g>
    <g class="st65">
      <g class="st66">
        <rect class="st27" x="281.29" y="52.94" width="87.18" height="96.53" transform="translate(168.8 403.58) rotate(-80)"/>
      </g>
    </g>
    <g class="st67">
      <rect class="st28" x="185.31" y="55.41" width="38.56" height="52.78" transform="translate(88.51 269.08) rotate(-80)"/>
    </g>
    <g class="st68">
      <g class="st69">
        <rect class="st32" x="261.24" y="46.62" width="77.24" height="53.73"/>
      </g>
    </g>
    <g class="st71">
      <g class="st72">
        <rect class="st31" x="241.23" y="74.49" width="77.24" height="53.73"/>
      </g>
    </g>
    <g class="st73">
      <rect class="st14" x="132.32" y="66.47" width="54.46" height="30.96"/>
    </g>
    <path class="st13" d="M174.94,93.07c-.73-2.91-3.88-18.23-18.77-16.59-13.31,1.46-19.46,17.09-20.62,20.4-.14.4-.21.62-.21.62,0,0,9.02-13.25,19.39-9.85,3.45,1.12,4.92,3.29,5.66,8.24v-.07h14.76c.05-.96,0-1.85-.22-2.75"/>
    <path class="st1" d="M205.18,81.72c-10.58,2.06-11.85,10.28-11.85,14.1h9.01v1.15c.75-4.24,2.08-7.23,6.51-8.04,10.79-1.98,16.94,8.22,16.94,8.22,0,0-4.86-18.5-20.62-15.42"/>
    <path class="st13" d="M138.64,99.42c0,1.9-1.54,3.44-3.44,3.44s-3.44-1.54-3.44-3.44,1.54-3.44,3.44-3.44,3.44,1.54,3.44,3.44"/>
    <path class="st1" d="M229.29,99.38c0,1.9-1.54,3.44-3.44,3.44s-3.44-1.54-3.44-3.44,1.54-3.44,3.44-3.44,3.44,1.54,3.44,3.44"/>
    <path class="st34" d="M184.53,34.71c0,1.9-1.54,3.44-3.43,3.44s-3.44-1.54-3.44-3.44,1.54-3.44,3.44-3.44,3.43,1.54,3.43,3.44"/>
  </g>
  <g>
    <path class="st1" d="M118.56,177.93c2.84,3.3,5.67,6.61,8.51,9.91,2.67-3.36,5.33-6.72,8-10.07.28,4.55.57,9.09.85,13.64,2.81-.06,5.62-.13,8.44-.19-.86-10.38-1.72-20.75-2.58-31.13-4.89,5.75-9.79,11.51-14.68,17.26-5.49-5.91-10.97-11.81-16.46-17.72-.35,10.59-.71,21.18-1.06,31.76,2.75-.02,5.51-.03,8.26-.05.24-4.47.48-8.94.72-13.41h0Z"/>
    <path class="st1" d="M156.24,189.16c3.61.12,7.22.13,10.83.02.5.73.99,1.45,1.49,2.14,3.19,0,6.39-.02,9.58-.04-5.5-10.75-10.99-21.5-16.49-32.24-5.29,10.78-10.58,21.57-15.87,32.35,3.08,0,6.15,0,9.23,0,.41-.74.82-1.48,1.24-2.22h-.01ZM165.04,182.42c-2.36.03-4.73.05-7.09.04,1.22-2.61,2.52-5.19,3.76-7.8,1.07,2.61,2.17,5.19,3.33,7.76h0Z"/>
    <path class="st1" d="M182.32,228.23c3.08,0,6.15,0,9.23,0,.41-.74.82-1.48,1.24-2.22,3.61.12,7.22.13,10.83.02.5.73.99,1.45,1.49,2.14,3.19,0,6.39-.02,9.58-.04-5.5-10.75-10.99-21.5-16.49-32.24-5.29,10.78-10.58,21.57-15.87,32.35h-.01ZM194.5,219.3c1.22-2.61,2.52-5.19,3.76-7.8,1.07,2.61,2.17,5.19,3.33,7.76-2.36.03-4.73.05-7.09.04h0Z"/>
    <path class="st1" d="M190.33,183.44c.78,0,1.56-.04,2.33-.08l4.34,7.55,10.89-.06-6.64-9.83c1.55-1.03,2.87-2.5,3.83-4.59,1.51-3.29,1.23-7.33-.62-10.41-.59-.98-1.33-1.86-2.22-2.59-1.82-1.48-4.06-2.26-6.34-2.67-.43-.08-5.7-.71-5.7-.35l-9.4.06.18,30.54,9.4-.06-.04-7.5h-.01ZM190.23,166.66h2.35c1.11-.02,2.04.14,2.84.47.94.38,1.69.98,2.22,1.78.52.79.79,1.72.79,2.76s-.25,1.92-.74,2.72c-.52.83-1.26,1.46-2.22,1.86-.8.34-1.72.5-2.84.51h-2.35l-.06-10.1h.01Z"/>
    <path class="st1" d="M178.49,213.79c1.51-3.29,1.23-7.33-.62-10.41-.59-.98-1.33-1.86-2.22-2.59-3.14-2.56-7.42-3.03-11.33-3.06-.95,0-10.12,0-10.11.09l.18,30.54,9.4-.06-.04-7.5c.78,0,1.56-.04,2.33-.08l4.34,7.55,10.89-.06-6.64-9.83c1.55-1.03,2.87-2.5,3.83-4.59h0ZM171.1,211.75c-.52.83-1.26,1.46-2.22,1.86-.8.34-1.72.5-2.84.51h-2.35l-.06-10.1h2.35c1.11-.02,2.04.14,2.84.47.94.38,1.69.98,2.22,1.78.52.79.79,1.72.79,2.76s-.25,1.92-.74,2.72h.01Z"/>
    <path class="st1" d="M205.94,251.41c1.51-3.29,1.23-7.33-.62-10.41-.59-.98-1.33-1.86-2.22-2.59-3.14-2.56-7.42-3.03-11.33-3.06-.95,0-10.12,0-10.11.09l.18,30.54,9.4-.06-.04-7.5c.78-.01,1.56-.04,2.33-.08l4.34,7.55,10.89-.06-6.64-9.83c1.55-1.03,2.87-2.5,3.83-4.59h0ZM198.56,249.37c-.52.83-1.26,1.46-2.22,1.86-.8.34-1.72.5-2.84.51h-2.35l-.06-10.1h2.35c1.11-.02,2.04.14,2.84.47.94.38,1.69.98,2.22,1.78.52.79.79,1.72.79,2.76s-.25,1.92-.74,2.72h.01Z"/>
    <path class="st1" d="M220.75,190.76h.7c3.47-.02,6.45-.64,8.94-1.85s4.38-2.94,5.7-5.18c1.31-2.24,1.96-4.92,1.94-8.02-.02-3.13-.7-5.81-2.03-8.02s-3.26-3.91-5.76-5.09-5.49-1.76-8.96-1.74h-.7l-4.56.03-5.23.03.18,29.91,5.23-.03,4.56-.03h0ZM220.9,168.97c.83,0,1.67.06,2.52.2.86.14,1.64.43,2.36.88.71.45,1.3,1.13,1.74,2.04.45.91.67,2.13.68,3.67s-.2,2.76-.64,3.68c-.44.91-1.01,1.6-1.72,2.06-.71.46-1.49.76-2.34.91-.85.15-1.69.22-2.52.23h-.27l-.08-13.67h.27Z"/>
    <rect class="st1" x="241.76" y="160.69" width="9.61" height="29.91" transform="translate(-1.04 1.47) rotate(-.34)"/>
    <path class="st1" d="M150.84,224.02c.02-4.2.04-8.4.05-12.61l-14.94.09.04,6.84,7.38-.04c-.05,0-.51.92-.58,1.02-.25.35-.53.68-.85.97-.65.58-1.42.95-2.25,1.21-2.31.71-5.13.71-7.29-.49-1.16-.64-2.07-1.59-2.71-2.84-.65-1.25-.98-2.75-.99-4.48s.33-3.23,1.02-4.41c.69-1.17,1.61-2.05,2.78-2.64s2.44-.89,3.84-.9,2.55.35,3.38,1.05c.83.71,1.51,1.53,2.03,2.47l8.73-3.99c-1-1.39-2.17-2.64-3.5-3.76s-2.88-2.01-4.63-2.69c-1.76-.67-3.78-1-6.05-.99-2.51,0-4.82.39-6.94,1.13-2.12.74-3.96,1.79-5.54,3.17-1.57,1.38-2.79,3.05-3.67,5-.87,1.96-1.3,4.16-1.28,6.61s.45,4.67,1.3,6.65c.85,1.99,2.05,3.7,3.58,5.11s3.34,2.5,5.42,3.26c2.09.76,4.38,1.13,6.88,1.11,1.77,0,4.23.07,7.15-.9,3.68-1.22,6.19-3.42,7.63-4.95h.01Z"/>
    <path class="st1" d="M238.09,223.61c.68-1.27,1.01-2.73,1-4.39,0-1.17-.18-2.23-.53-3.18s-.86-1.81-1.53-2.58-1.48-1.44-2.43-2.02-2.01-1.08-3.21-1.5c-1.17-.42-2.24-.79-3.21-1.11s-1.75-.67-2.34-1.05-.88-.87-.88-1.47c0-.48.2-.84.61-1.07.41-.23.94-.35,1.6-.35.54,0,1.1.09,1.67.29.57.2,1.14.5,1.69.91.56.41,1.07.97,1.53,1.68l6.94-3.89c-.55-1.02-1.34-2.04-2.39-3.06s-2.38-1.87-3.99-2.54-3.55-1-5.8-.99c-2.08,0-3.99.37-5.72,1.06s-3.12,1.71-4.17,3.06c-1.05,1.35-1.56,3-1.55,4.97,0,1.51.29,2.82.86,3.93.56,1.11,1.27,2.04,2.11,2.81.84.76,1.73,1.39,2.66,1.86.93.48,1.75.86,2.46,1.14,1.63.62,2.84,1.11,3.64,1.47.8.37,1.34.69,1.61.97s.41.62.41,1.02c0,.66-.25,1.13-.76,1.44s-1.14.46-1.88.46c-.88,0-1.76-.17-2.63-.54-.87-.36-1.68-.91-2.42-1.63-.75-.72-1.41-1.58-1.98-2.57l-6.3,4.65c.69,1.51,1.71,2.87,3.06,4.08,1.35,1.22,2.94,2.17,4.78,2.86s3.83,1.02,5.97,1.01c1.54,0,3.03-.23,4.48-.67s2.75-1.07,3.9-1.9c1.15-.83,2.06-1.88,2.74-3.16h0Z"/>
    <polygon class="st1" points="127.09 252.65 119.22 237.14 111.54 252.74 106.83 236.18 95.5 236.25 109.36 268 119.31 252.44 129.45 267.88 142.93 235.97 131.61 236.03 127.09 252.65"/>
    <path class="st1" d="M172.26,239.25c-1.52-1.39-3.29-2.44-5.32-3.17-2.03-.73-4.24-1.09-6.63-1.07s-4.51.4-6.53,1.15-3.78,1.83-5.28,3.24-2.67,3.08-3.52,5.02c-.84,1.94-1.26,4.11-1.24,6.5s.43,4.58,1.26,6.55c.82,1.98,1.98,3.68,3.47,5.13,1.49,1.44,3.26,2.55,5.3,3.32,2.04.77,4.29,1.15,6.74,1.14s4.69-.42,6.72-1.21c2.03-.8,3.78-1.92,5.26-3.39,1.47-1.46,2.61-3.18,3.41-5.17.8-1.98,1.19-4.17,1.18-6.57s-.44-4.55-1.28-6.49c-.84-1.93-2.02-3.59-3.53-4.98h0ZM166.33,254.63c-.53,1.11-1.3,1.98-2.29,2.6-.99.62-2.19.93-3.58.94s-2.59-.29-3.59-.9-1.78-1.46-2.32-2.57c-.55-1.11-.83-2.39-.83-3.84s.25-2.77.79-3.87c.53-1.1,1.3-1.96,2.29-2.58.99-.62,2.19-.93,3.58-.94,1.48,0,2.71.29,3.7.9.99.61,1.74,1.46,2.26,2.55.52,1.09.78,2.38.79,3.86s-.26,2.74-.79,3.85h0Z"/>
    <polygon class="st1" points="220.74 235.51 211.34 235.56 211.52 265.47 233.09 265.34 233.05 257.44 220.87 257.51 220.74 235.51"/>
    <path class="st1" d="M262.46,242.18c-1.34-2.21-3.26-3.91-5.76-5.09s-5.49-1.76-8.96-1.74h-1.97l-3.29.03-6.49.04.18,29.91,6.49-.04,3.29-.02h1.97c3.47-.03,6.45-.65,8.94-1.86s4.38-2.94,5.7-5.18c1.31-2.24,1.96-4.92,1.94-8.02-.02-3.13-.7-5.81-2.03-8.02h0ZM254.03,253.94c-.44.91-1.01,1.6-1.72,2.06s-1.49.76-2.34.91c-.85.15-1.69.22-2.52.23h-1.54l-.08-13.66h1.54c.83,0,1.67.05,2.52.19.86.14,1.64.43,2.36.88.71.45,1.3,1.13,1.74,2.04.45.91.67,2.13.68,3.67s-.2,2.76-.64,3.68Z"/>
  </g>
</svg>